<svg width="51" height="61" viewBox="0 0 51 61" fill="none" xmlns="http://www.w3.org/2000/svg">
<path d="M32.9008 48L19.5508 13.5H14.6008L1.15078 48H5.55078L9.20078 38.45H24.8008L28.4008 48H32.9008ZM16.3008 19.9C16.6008 19.15 16.7508 18.7 17.0508 17.8C17.3508 18.7 17.5008 19.15 17.8008 19.95L23.3508 34.6H10.7008L16.3008 19.9Z" fill="white"/>
<path d="M49.9008 48L36.5508 13.5H31.6008L18.1508 48H22.5508L26.2008 38.45H41.8008L45.4008 48H49.9008ZM33.3008 19.9C33.6008 19.15 33.7508 18.7 34.0508 17.8C34.3508 18.7 34.5008 19.15 34.8008 19.95L40.3508 34.6H27.7008L33.3008 19.9Z" fill="white"/>
</svg>
