<?xml version="1.0" standalone="no"?>
<!DOCTYPE svg PUBLIC "-//W3C//DTD SVG 20010904//EN"
 "http://www.w3.org/TR/2001/REC-SVG-20010904/DTD/svg10.dtd">
<svg version="1.0" xmlns="http://www.w3.org/2000/svg"
 width="512.000000pt" height="512.000000pt" viewBox="0 0 512.000000 512.000000"
 preserveAspectRatio="xMidYMid meet">
<metadata>
Created by potrace 1.14, written by Peter Selinger 2001-2017
</metadata>
<g transform="translate(0.000000,512.000000) scale(0.100000,-0.100000)"
fill="#000000" stroke="none">
<path d="M1686 5105 c-16 -9 -158 -146 -315 -305 -157 -158 -528 -532 -823
-829 -511 -514 -537 -542 -543 -583 -3 -24 -5 -774 -3 -1668 l3 -1625 22 -31
c49 -69 -85 -64 1731 -64 l1639 0 37 25 c20 13 258 245 529 514 270 269 637
633 814 808 177 175 327 331 332 347 8 19 11 542 11 1669 -1 1526 -2 1644 -18
1676 -9 19 -30 44 -45 55 l-28 21 -1657 2 c-1469 3 -1660 1 -1686 -12z"/>
</g>
</svg>
