<?xml version="1.0" standalone="no"?>
<!DOCTYPE svg PUBLIC "-//W3C//DTD SVG 20010904//EN"
 "http://www.w3.org/TR/2001/REC-SVG-20010904/DTD/svg10.dtd">
<svg version="1.0" xmlns="http://www.w3.org/2000/svg"
 width="84.000000pt" height="84.000000pt" viewBox="0 0 84.000000 84.000000"
 preserveAspectRatio="xMidYMid meet">
<metadata>
Created by potrace 1.14, written by Peter Selinger 2001-2017
</metadata>
<g transform="translate(0.000000,84.000000) scale(0.100000,-0.100000)"
fill="#000000" stroke="none">
<path d="M275 590 c-3 -5 -25 -59 -49 -122 -24 -62 -53 -137 -65 -165 l-21
-53 24 0 c20 0 27 8 40 48 l16 47 73 0 c91 0 101 -6 93 -56 l-6 -39 39 0 c40
0 40 0 30 29 -18 53 -1 67 78 65 37 -1 73 -2 79 -3 6 0 17 -21 24 -46 10 -37
17 -45 36 -45 13 0 24 1 24 3 0 2 -29 79 -65 172 -36 92 -65 168 -65 169 0 1
-11 2 -25 2 -23 0 -29 -11 -66 -105 -23 -59 -44 -110 -48 -114 -5 -4 -27 42
-50 103 -24 60 -46 110 -49 111 -4 0 -15 2 -24 4 -10 2 -20 0 -23 -5z m59
-129 c14 -36 26 -67 26 -70 0 -11 -110 -7 -111 4 -3 19 45 145 52 137 4 -4 19
-36 33 -71z m231 6 c14 -37 25 -71 25 -76 0 -6 -105 -8 -117 -2 -1 1 9 27 21
59 13 31 26 66 30 76 9 25 11 21 41 -57z"/>
</g>
</svg>
